<?xml version="1.0" encoding="UTF-8" standalone="no"?>
<svg width="513px" height="513px" viewBox="0 0 513 513" version="1.1" xmlns="http://www.w3.org/2000/svg" xmlns:xlink="http://www.w3.org/1999/xlink">
    <!-- Generator: Sketch 40.1 (33804) - http://www.bohemiancoding.com/sketch -->
    <title>logo_final</title>
    <desc>Created with Sketch.</desc>
    <defs>
        <circle id="path-1" cx="243.5" cy="244.5" r="243.5"></circle>
        <filter x="-50%" y="-50%" width="200%" height="200%" filterUnits="objectBoundingBox" id="filter-2">
            <feMorphology radius="0.5" operator="dilate" in="SourceAlpha" result="shadowSpreadOuter1"></feMorphology>
            <feOffset dx="0" dy="5" in="shadowSpreadOuter1" result="shadowOffsetOuter1"></feOffset>
            <feGaussianBlur stdDeviation="6.5" in="shadowOffsetOuter1" result="shadowBlurOuter1"></feGaussianBlur>
            <feComposite in="shadowBlurOuter1" in2="SourceAlpha" operator="out" result="shadowBlurOuter1"></feComposite>
            <feColorMatrix values="0 0 0 0 0   0 0 0 0 0   0 0 0 0 0  0 0 0 0.5 0" type="matrix" in="shadowBlurOuter1"></feColorMatrix>
        </filter>
        <filter x="-50%" y="-50%" width="200%" height="200%" filterUnits="objectBoundingBox" id="filter-3">
            <feOffset dx="3" dy="5" in="SourceAlpha" result="shadowOffsetOuter1"></feOffset>
            <feGaussianBlur stdDeviation="3" in="shadowOffsetOuter1" result="shadowBlurOuter1"></feGaussianBlur>
            <feColorMatrix values="0 0 0 0 0   0 0 0 0 0   0 0 0 0 0  0 0 0 0.5 0" type="matrix" in="shadowBlurOuter1" result="shadowMatrixOuter1"></feColorMatrix>
            <feMerge>
                <feMergeNode in="shadowMatrixOuter1"></feMergeNode>
                <feMergeNode in="SourceGraphic"></feMergeNode>
            </feMerge>
        </filter>
    </defs>
    <g id="Page-1" stroke="none" stroke-width="1" fill="none" fill-rule="evenodd">
        <g id="logo_final" transform="translate(13.000000, 7.000000)">
            <g id="Oval">
                <use fill="black" fill-opacity="1" filter="url(#filter-2)" xlink:href="#path-1"></use>
                <use stroke="#979797" stroke-width="1" fill="#4990E2" fill-rule="evenodd" xlink:href="#path-1"></use>
            </g>
            <path d="M486.51464,259 C486.836597,253.874731 487,248.706448 487,243.5 C487,109.018663 377.981337,0 243.5,0 C109.018663,0 5.68434189e-14,109.018663 5.68434189e-14,243.5 C5.68434189e-14,248.706448 0.163402928,253.874731 0.485360187,259 L486.51464,259 Z" id="Combined-Shape" fill-opacity="0.35" fill="#FFFFFF"></path>
            <text id="FORUM-Offene-Stadt" font-family="PTSans-Bold, PT Sans" font-size="48" font-weight="bold" letter-spacing="9.59999943" fill="#FFFFFF">
                <tspan x="69" y="321">FORUM</tspan>
                <tspan x="69" y="377" letter-spacing="7.3">Offene Stadt</tspan>
            </text>
            <path d="M337.178063,164.738946 C336.18056,164.738946 335.273167,165.106696 334.583018,165.707355 C333.547095,163.833872 331.515764,162.560367 329.179874,162.560367 C327.895274,162.560367 326.704975,162.945823 325.719347,163.603688 C324.003753,160.844199 320.893889,159 317.341855,159 C314.179601,159 311.368709,160.46351 309.57907,162.733345 C309.115245,162.623701 308.633957,162.560367 308.136602,162.560367 C304.747326,162.560367 302,165.238814 302,168.543117 L341.080062,168.543117 C341.080062,166.442174 339.333034,164.738946 337.178063,164.738946" id="Fill-494" fill="#FFFFFF"></path>
            <path d="M78.1787619,142.739627 C77.1812584,142.739627 76.2738655,143.107377 75.5837161,143.707355 C74.5463963,141.833872 72.5164628,140.560367 70.1798738,140.560367 C68.8952737,140.560367 67.7049755,140.946504 66.7193471,141.604369 C65.0037529,138.844199 61.8938891,137 58.3425533,137 C55.1796011,137 52.368709,138.464191 50.5790704,140.734026 C50.1159438,140.624382 49.6339569,140.560367 49.1366022,140.560367 C45.7473257,140.560367 43,143.239495 43,146.543117 L82.0807607,146.543117 C82.0807607,144.442174 80.333034,142.739627 78.1787619,142.739627" id="Fill-495" fill="#FFFFFF"></path>
            <path d="M105.189769,134.96788 C104.674253,134.96788 104.204839,135.157885 103.847889,135.468429 C103.311417,134.50002 102.261524,133.841475 101.053762,133.841475 C100.389458,133.841475 99.7740517,134.040333 99.2641235,134.380842 C98.376988,132.954107 96.7696663,132 94.9332261,132 C93.297963,132 91.8443183,132.757293 90.9187636,133.930689 C90.6791672,133.874164 90.4304899,133.841475 90.1734301,133.841475 C88.4208138,133.841475 87,135.225986 87,136.934663 L107.207129,136.934663 C107.207129,135.848438 106.303927,134.96788 105.189769,134.96788" id="Fill-496" fill="#FFFFFF"></path>
            <path d="M406.189769,158.967199 C405.674253,158.967199 405.204839,159.157204 404.847889,159.467748 C404.311417,158.499339 403.261524,157.840794 402.053762,157.840794 C401.389458,157.840794 400.774052,158.040333 400.264123,158.380161 C399.376988,156.953426 397.768968,156 395.933226,156 C394.297265,156 392.84362,156.756612 391.918764,157.930007 C391.679167,157.873483 391.43049,157.840794 391.17343,157.840794 C389.420814,157.840794 388,159.225986 388,160.933982 L408.20643,160.933982 C408.20643,159.847757 407.303927,158.967199 406.189769,158.967199" id="Fill-497" fill="#FFFFFF"></path>
            <path d="M290.248293,130.871216 C288.880567,130.871216 287.636482,131.376532 286.689273,132.199884 C285.267761,129.6304 282.482714,127.883586 279.278549,127.883586 C277.516851,127.883586 275.882985,128.412738 274.532025,129.314407 C272.178671,125.529304 267.913436,123 263.043272,123 C258.70469,123 254.849493,125.008325 252.394852,128.120581 C251.759887,127.970757 251.099076,127.883586 250.415912,127.883586 C245.767881,127.883586 242,131.557002 242,136.089183 L295.600443,136.089183 C295.600443,133.207792 293.203781,130.871216 290.248293,130.871216" id="Fill-523" fill="#FFFFFF"></path>
            <path d="M454.248991,142.871216 C452.881266,142.871216 451.636482,143.376532 450.689971,144.199884 C449.268459,141.6304 446.482714,139.883586 443.278549,139.883586 C441.516851,139.883586 439.883684,140.412738 438.532723,141.314407 C436.178671,137.529304 431.914134,135 427.043272,135 C422.70469,135 418.850192,137.007644 416.395551,140.120581 C415.759887,139.970757 415.099774,139.883586 414.41661,139.883586 C409.768579,139.883586 406,143.557002 406,148.088502 L459.601142,148.088502 C459.601142,145.207792 457.204479,142.871216 454.248991,142.871216" id="Fill-524" fill="#FFFFFF"></path>
            <g id="skyline" filter="url(#filter-3)" transform="translate(0.000000, 149.000000)">
                <polygon id="Fill-267" fill="#3A4245" points="0 110.229592 487 110.229592 487 103.571429 0 103.571429"></polygon>
                <polygon id="Fill-269" fill="#3A4245" points="238.404335 107.270408 272.133999 107.270408 272.133999 15.6281888 238.404335 15.6281888"></polygon>
                <polygon id="Fill-270" fill="#FFFFFF" points="240.952167 39.9489796 244.591928 39.9489796 244.591928 26.6326531 240.952167 26.6326531"></polygon>
                <polygon id="Fill-271" fill="#FFFFFF" points="246.775785 39.9489796 250.415546 39.9489796 250.415546 26.6326531 246.775785 26.6326531"></polygon>
                <polygon id="Fill-272" fill="#FFFFFF" points="259.150972 39.9489796 262.790732 39.9489796 262.790732 26.6326531 259.150972 26.6326531"></polygon>
                <polygon id="Fill-273" fill="#FFFFFF" points="265.702541 39.9489796 269.342302 39.9489796 269.342302 26.6326531 265.702541 26.6326531"></polygon>
                <polygon id="Fill-274" fill="#FFFFFF" points="240.952167 56.2244898 244.591928 56.2244898 244.591928 42.9081633 240.952167 42.9081633"></polygon>
                <polygon id="Fill-275" fill="#FFFFFF" points="253.327354 56.2244898 256.967115 56.2244898 256.967115 42.9081633 253.327354 42.9081633"></polygon>
                <polygon id="Fill-276" fill="#FFFFFF" points="259.150972 56.2244898 262.790732 56.2244898 262.790732 42.9081633 259.150972 42.9081633"></polygon>
                <polygon id="Fill-277" fill="#FFFFFF" points="240.952167 72.5 244.591928 72.5 244.591928 59.1836735 240.952167 59.1836735"></polygon>
                <polygon id="Fill-278" fill="#FFFFFF" points="246.775785 72.5 250.415546 72.5 250.415546 59.1836735 246.775785 59.1836735"></polygon>
                <polygon id="Fill-279" fill="#FFFFFF" points="253.327354 72.5 256.967115 72.5 256.967115 59.1836735 253.327354 59.1836735"></polygon>
                <polygon id="Fill-280" fill="#FFFFFF" points="265.702541 72.5 269.342302 72.5 269.342302 59.1836735 265.702541 59.1836735"></polygon>
                <polygon id="Fill-281" fill="#FFFFFF" points="240.952167 88.0357143 244.591928 88.0357143 244.591928 75.4591837 240.952167 75.4591837"></polygon>
                <polygon id="Fill-282" fill="#FFFFFF" points="253.327354 88.0357143 256.967115 88.0357143 256.967115 75.4591837 253.327354 75.4591837"></polygon>
                <polygon id="Fill-283" fill="#FFFFFF" points="259.150972 88.0357143 262.790732 88.0357143 262.790732 75.4591837 259.150972 75.4591837"></polygon>
                <polygon id="Fill-284" fill="#FFFFFF" points="265.702541 88.0357143 269.342302 88.0357143 269.342302 75.4591837 265.702541 75.4591837"></polygon>
                <polygon id="Fill-285" fill="#3A4245" points="204.918535 107.270408 233.064806 107.270408 233.064806 31.2090306 204.918535 31.2090306"></polygon>
                <polygon id="Fill-286" fill="#FFFFFF" points="209.650224 51.7857143 211.834081 51.7857143 211.834081 40.6887755 209.650224 40.6887755"></polygon>
                <polygon id="Fill-287" fill="#FFFFFF" points="214.745889 51.7857143 216.929746 51.7857143 216.929746 40.6887755 214.745889 40.6887755"></polygon>
                <polygon id="Fill-288" fill="#FFFFFF" points="219.841555 51.7857143 222.025411 51.7857143 222.025411 40.6887755 219.841555 40.6887755"></polygon>
                <polygon id="Fill-289" fill="#FFFFFF" points="224.93722 51.7857143 227.121076 51.7857143 227.121076 40.6887755 224.93722 40.6887755"></polygon>
                <polygon id="Fill-290" fill="#FFFFFF" points="209.650224 65.8418367 211.834081 65.8418367 211.834081 54.744898 209.650224 54.744898"></polygon>
                <polygon id="Fill-291" fill="#FFFFFF" points="214.745889 65.8418367 216.929746 65.8418367 216.929746 54.744898 214.745889 54.744898"></polygon>
                <polygon id="Fill-292" fill="#FFFFFF" points="219.841555 65.8418367 222.025411 65.8418367 222.025411 54.744898 219.841555 54.744898"></polygon>
                <polygon id="Fill-293" fill="#FFFFFF" points="224.93722 65.8418367 227.121076 65.8418367 227.121076 54.744898 224.93722 54.744898"></polygon>
                <polygon id="Fill-294" fill="#FFFFFF" points="209.650224 78.4183673 211.834081 78.4183673 211.834081 67.3214286 209.650224 67.3214286"></polygon>
                <polygon id="Fill-295" fill="#FFFFFF" points="214.745889 78.4183673 216.929746 78.4183673 216.929746 67.3214286 214.745889 67.3214286"></polygon>
                <polygon id="Fill-296" fill="#FFFFFF" points="219.841555 78.4183673 222.025411 78.4183673 222.025411 67.3214286 219.841555 67.3214286"></polygon>
                <polygon id="Fill-297" fill="#FFFFFF" points="224.93722 78.4183673 227.121076 78.4183673 227.121076 67.3214286 224.93722 67.3214286"></polygon>
                <polygon id="Fill-298" fill="#FFFFFF" points="209.650224 92.4744898 211.834081 92.4744898 211.834081 81.377551 209.650224 81.377551"></polygon>
                <polygon id="Fill-299" fill="#FFFFFF" points="214.745889 92.4744898 216.929746 92.4744898 216.929746 81.377551 214.745889 81.377551"></polygon>
                <polygon id="Fill-300" fill="#FFFFFF" points="219.841555 92.4744898 222.025411 92.4744898 222.025411 81.377551 219.841555 81.377551"></polygon>
                <polygon id="Fill-301" fill="#FFFFFF" points="224.93722 92.4744898 227.121076 92.4744898 227.121076 81.377551 224.93722 81.377551"></polygon>
                <polygon id="Fill-362" fill="#FFFFFF" points="133.215247 93.2142857 137.58296 93.2142857 137.58296 88.0357143 133.215247 88.0357143"></polygon>
                <polygon id="Fill-363" fill="#3A4245" points="307.559791 107.270408 339.589686 107.270408 339.589686 51.0459184 307.559791 51.0459184"></polygon>
                <polygon id="Fill-364" fill="#FFFFFF" points="327.578475 60.6632653 330.490284 60.6632653 330.490284 56.9642857 327.578475 56.9642857"></polygon>
                <polygon id="Fill-365" fill="#FFFFFF" points="327.578475 65.8418367 330.490284 65.8418367 330.490284 62.1428571 327.578475 62.1428571"></polygon>
                <polygon id="Fill-366" fill="#FFFFFF" points="327.578475 71.0204082 330.490284 71.0204082 330.490284 67.3214286 327.578475 67.3214286"></polygon>
                <polygon id="Fill-367" fill="#FFFFFF" points="327.578475 76.1989796 330.490284 76.1989796 330.490284 72.5 327.578475 72.5"></polygon>
                <polygon id="Fill-368" fill="#FFFFFF" points="327.578475 81.377551 330.490284 81.377551 330.490284 77.6785714 327.578475 77.6785714"></polygon>
                <polygon id="Fill-369" fill="#FFFFFF" points="327.578475 86.5561224 330.490284 86.5561224 330.490284 82.8571429 327.578475 82.8571429"></polygon>
                <polygon id="Fill-370" fill="#FFFFFF" points="327.578475 91.7346939 330.490284 91.7346939 330.490284 88.0357143 327.578475 88.0357143"></polygon>
                <polygon id="Fill-371" fill="#FFFFFF" points="327.578475 96.9132653 330.490284 96.9132653 330.490284 93.2142857 327.578475 93.2142857"></polygon>
                <polygon id="Fill-372" fill="#FFFFFF" points="315.931241 60.6632653 318.843049 60.6632653 318.843049 56.9642857 315.931241 56.9642857"></polygon>
                <polygon id="Fill-373" fill="#FFFFFF" points="315.931241 65.8418367 318.843049 65.8418367 318.843049 62.1428571 315.931241 62.1428571"></polygon>
                <polygon id="Fill-374" fill="#FFFFFF" points="315.931241 71.0204082 318.843049 71.0204082 318.843049 67.3214286 315.931241 67.3214286"></polygon>
                <polygon id="Fill-375" fill="#FFFFFF" points="315.931241 76.1989796 318.843049 76.1989796 318.843049 72.5 315.931241 72.5"></polygon>
                <polygon id="Fill-376" fill="#FFFFFF" points="315.931241 81.377551 318.843049 81.377551 318.843049 77.6785714 315.931241 77.6785714"></polygon>
                <polygon id="Fill-377" fill="#FFFFFF" points="315.931241 86.5561224 318.843049 86.5561224 318.843049 82.8571429 315.931241 82.8571429"></polygon>
                <polygon id="Fill-378" fill="#FFFFFF" points="315.931241 91.7346939 318.843049 91.7346939 318.843049 88.0357143 315.931241 88.0357143"></polygon>
                <polygon id="Fill-379" fill="#FFFFFF" points="315.931241 96.9132653 318.843049 96.9132653 318.843049 93.2142857 315.931241 93.2142857"></polygon>
                <polygon id="Fill-380" fill="#FFFFFF" points="321.754858 60.6632653 324.666667 60.6632653 324.666667 56.9642857 321.754858 56.9642857"></polygon>
                <polygon id="Fill-381" fill="#FFFFFF" points="321.754858 65.8418367 324.666667 65.8418367 324.666667 62.1428571 321.754858 62.1428571"></polygon>
                <polygon id="Fill-382" fill="#FFFFFF" points="321.754858 71.0204082 324.666667 71.0204082 324.666667 67.3214286 321.754858 67.3214286"></polygon>
                <polygon id="Fill-383" fill="#FFFFFF" points="321.754858 76.1989796 324.666667 76.1989796 324.666667 72.5 321.754858 72.5"></polygon>
                <polygon id="Fill-384" fill="#FFFFFF" points="321.754858 81.377551 324.666667 81.377551 324.666667 77.6785714 321.754858 77.6785714"></polygon>
                <polygon id="Fill-385" fill="#FFFFFF" points="321.754858 86.5561224 324.666667 86.5561224 324.666667 82.8571429 321.754858 82.8571429"></polygon>
                <polygon id="Fill-386" fill="#FFFFFF" points="321.754858 91.7346939 324.666667 91.7346939 324.666667 88.0357143 321.754858 88.0357143"></polygon>
                <polygon id="Fill-387" fill="#FFFFFF" points="321.754858 96.9132653 324.666667 96.9132653 324.666667 93.2142857 321.754858 93.2142857"></polygon>
                <path d="M149.230194,32.5510204 L152.142003,32.5510204 L152.142003,26.6326531 L149.230194,26.6326531 L149.230194,32.5510204 Z M149.230194,42.9081633 L152.142003,42.9081633 L152.142003,36.9897959 L149.230194,36.9897959 L149.230194,42.9081633 Z M149.230194,53.2653061 L152.142003,53.2653061 L152.142003,47.3469388 L149.230194,47.3469388 L149.230194,53.2653061 Z M149.230194,63.622449 L152.142003,63.622449 L152.142003,57.7040816 L149.230194,57.7040816 L149.230194,63.622449 Z M149.230194,73.9795918 L152.142003,73.9795918 L152.142003,68.0612245 L149.230194,68.0612245 L149.230194,73.9795918 Z M149.230194,84.3367347 L152.142003,84.3367347 L152.142003,78.4183673 L149.230194,78.4183673 L149.230194,84.3367347 Z M149.230194,94.6938776 L152.142003,94.6938776 L152.142003,88.7755102 L149.230194,88.7755102 L149.230194,94.6938776 Z M143.406577,32.5510204 L146.318386,32.5510204 L146.318386,26.6326531 L143.406577,26.6326531 L143.406577,32.5510204 Z M143.406577,42.9081633 L146.318386,42.9081633 L146.318386,36.9897959 L143.406577,36.9897959 L143.406577,42.9081633 Z M143.406577,53.2653061 L146.318386,53.2653061 L146.318386,47.3469388 L143.406577,47.3469388 L143.406577,53.2653061 Z M143.406577,63.622449 L146.318386,63.622449 L146.318386,57.7040816 L143.406577,57.7040816 L143.406577,63.622449 Z M143.406577,73.9795918 L146.318386,73.9795918 L146.318386,68.0612245 L143.406577,68.0612245 L143.406577,73.9795918 Z M143.406577,84.3367347 L146.318386,84.3367347 L146.318386,78.4183673 L143.406577,78.4183673 L143.406577,84.3367347 Z M143.406577,94.6938776 L146.318386,94.6938776 L146.318386,88.7755102 L143.406577,88.7755102 L143.406577,94.6938776 Z M137.58296,32.5510204 L140.494768,32.5510204 L140.494768,26.6326531 L137.58296,26.6326531 L137.58296,32.5510204 Z M137.58296,42.9081633 L140.494768,42.9081633 L140.494768,36.9897959 L137.58296,36.9897959 L137.58296,42.9081633 Z M137.58296,53.2653061 L140.494768,53.2653061 L140.494768,47.3469388 L137.58296,47.3469388 L137.58296,53.2653061 Z M137.58296,63.622449 L140.494768,63.622449 L140.494768,57.7040816 L137.58296,57.7040816 L137.58296,63.622449 Z M137.58296,73.9795918 L140.494768,73.9795918 L140.494768,68.0612245 L137.58296,68.0612245 L137.58296,73.9795918 Z M137.58296,84.3367347 L140.494768,84.3367347 L140.494768,78.4183673 L137.58296,78.4183673 L137.58296,84.3367347 Z M137.58296,94.6938776 L140.494768,94.6938776 L140.494768,88.7755102 L137.58296,88.7755102 L137.58296,94.6938776 Z M137.58296,19.2346939 L140.494768,19.2346939 L140.494768,13.3163265 L137.58296,13.3163265 L137.58296,19.2346939 Z M143.406577,19.2346939 L146.318386,19.2346939 L146.318386,13.3163265 L143.406577,13.3163265 L143.406577,19.2346939 Z M149.230194,19.2346939 L152.142003,19.2346939 L152.142003,13.3163265 L149.230194,13.3163265 L149.230194,19.2346939 Z M155.781764,22.9336735 L155.781764,8.1377551 L146.318386,8.1377551 L146.318386,0 L143.406577,0 L143.406577,8.1377551 L134.671151,8.1377551 L134.671151,22.9336735 L129.575486,22.9336735 L129.575486,107.270408 L160.149477,107.270408 L160.149477,22.9336735 L155.781764,22.9336735 L155.781764,22.9336735 Z" id="Fill-388" fill="#3A4245"></path>
                <polygon id="Fill-389" fill="#FFFFFF" points="137.58296 32.5510204 140.494768 32.5510204 140.494768 26.6326531 137.58296 26.6326531"></polygon>
                <polygon id="Fill-390" fill="#FFFFFF" points="143.406577 32.5510204 146.318386 32.5510204 146.318386 26.6326531 143.406577 26.6326531"></polygon>
                <polygon id="Fill-391" fill="#FFFFFF" points="149.230194 32.5510204 152.142003 32.5510204 152.142003 26.6326531 149.230194 26.6326531"></polygon>
                <polygon id="Fill-392" fill="#FFFFFF" points="137.58296 42.9081633 140.494768 42.9081633 140.494768 36.9897959 137.58296 36.9897959"></polygon>
                <polygon id="Fill-393" fill="#FFFFFF" points="143.406577 42.9081633 146.318386 42.9081633 146.318386 36.9897959 143.406577 36.9897959"></polygon>
                <polygon id="Fill-394" fill="#FFFFFF" points="149.230194 42.9081633 152.142003 42.9081633 152.142003 36.9897959 149.230194 36.9897959"></polygon>
                <polygon id="Fill-395" fill="#FFFFFF" points="137.58296 53.2653061 140.494768 53.2653061 140.494768 47.3469388 137.58296 47.3469388"></polygon>
                <polygon id="Fill-396" fill="#FFFFFF" points="143.406577 53.2653061 146.318386 53.2653061 146.318386 47.3469388 143.406577 47.3469388"></polygon>
                <polygon id="Fill-397" fill="#FFFFFF" points="149.230194 53.2653061 152.142003 53.2653061 152.142003 47.3469388 149.230194 47.3469388"></polygon>
                <polygon id="Fill-398" fill="#FFFFFF" points="137.58296 63.622449 140.494768 63.622449 140.494768 57.7040816 137.58296 57.7040816"></polygon>
                <polygon id="Fill-399" fill="#FFFFFF" points="143.406577 63.622449 146.318386 63.622449 146.318386 57.7040816 143.406577 57.7040816"></polygon>
                <polygon id="Fill-400" fill="#FFFFFF" points="149.230194 63.622449 152.142003 63.622449 152.142003 57.7040816 149.230194 57.7040816"></polygon>
                <polygon id="Fill-401" fill="#FFFFFF" points="137.58296 73.9795918 140.494768 73.9795918 140.494768 68.0612245 137.58296 68.0612245"></polygon>
                <polygon id="Fill-402" fill="#FFFFFF" points="143.406577 73.9795918 146.318386 73.9795918 146.318386 68.0612245 143.406577 68.0612245"></polygon>
                <polygon id="Fill-403" fill="#FFFFFF" points="149.230194 73.9795918 152.142003 73.9795918 152.142003 68.0612245 149.230194 68.0612245"></polygon>
                <polygon id="Fill-404" fill="#FFFFFF" points="137.58296 84.3367347 140.494768 84.3367347 140.494768 78.4183673 137.58296 78.4183673"></polygon>
                <polygon id="Fill-405" fill="#FFFFFF" points="143.406577 84.3367347 146.318386 84.3367347 146.318386 78.4183673 143.406577 78.4183673"></polygon>
                <polygon id="Fill-406" fill="#FFFFFF" points="149.230194 84.3367347 152.142003 84.3367347 152.142003 78.4183673 149.230194 78.4183673"></polygon>
                <polygon id="Fill-407" fill="#FFFFFF" points="137.58296 94.6938776 140.494768 94.6938776 140.494768 88.7755102 137.58296 88.7755102"></polygon>
                <polygon id="Fill-408" fill="#FFFFFF" points="143.406577 94.6938776 146.318386 94.6938776 146.318386 88.7755102 143.406577 88.7755102"></polygon>
                <polygon id="Fill-409" fill="#FFFFFF" points="149.230194 94.6938776 152.142003 94.6938776 152.142003 88.7755102 149.230194 88.7755102"></polygon>
                <polygon id="Fill-410" fill="#FFFFFF" points="137.58296 19.2346939 140.494768 19.2346939 140.494768 13.3163265 137.58296 13.3163265"></polygon>
                <polygon id="Fill-411" fill="#FFFFFF" points="143.406577 19.2346939 146.318386 19.2346939 146.318386 13.3163265 143.406577 13.3163265"></polygon>
                <polygon id="Fill-412" fill="#FFFFFF" points="149.230194 19.2346939 152.142003 19.2346939 152.142003 13.3163265 149.230194 13.3163265"></polygon>
                <path d="M112.104634,71.7602041 L114.28849,71.7602041 L114.28849,61.4030612 L112.104634,61.4030612 L112.104634,71.7602041 Z M112.104634,90.255102 L114.28849,90.255102 L114.28849,79.8979592 L112.104634,79.8979592 L112.104634,90.255102 Z M105.553064,71.7602041 L107.736921,71.7602041 L107.736921,61.4030612 L105.553064,61.4030612 L105.553064,71.7602041 Z M105.553064,90.255102 L107.736921,90.255102 L107.736921,79.8979592 L105.553064,79.8979592 L105.553064,90.255102 Z M99.0014948,71.7602041 L101.185351,71.7602041 L101.185351,61.4030612 L99.0014948,61.4030612 L99.0014948,71.7602041 Z M99.0014948,90.255102 L101.185351,90.255102 L101.185351,79.8979592 L99.0014948,79.8979592 L99.0014948,90.255102 Z M82.2585949,90.255102 L84.4424514,90.255102 L84.4424514,79.8979592 L82.2585949,79.8979592 L82.2585949,90.255102 Z M75.7070254,90.255102 L77.8908819,90.255102 L77.8908819,79.8979592 L75.7070254,79.8979592 L75.7070254,90.255102 Z M69.1554559,90.255102 L71.3393124,90.255102 L71.3393124,79.8979592 L69.1554559,79.8979592 L69.1554559,90.255102 Z M112.104634,53.2653061 L114.28849,53.2653061 L114.28849,42.9081633 L112.104634,42.9081633 L112.104634,53.2653061 Z M105.553064,53.2653061 L107.736921,53.2653061 L107.736921,42.9081633 L105.553064,42.9081633 L105.553064,53.2653061 Z M99.0014948,53.2653061 L101.185351,53.2653061 L101.185351,42.9081633 L99.0014948,42.9081633 L99.0014948,53.2653061 Z M118.656203,54.005102 L118.656203,41.4285714 L121.082468,41.4285714 C121.082468,34.1571173 115.744395,28.1677296 108.464873,27.2585204 L108.464873,19.9744898 L105.553064,19.9744898 L105.553064,27.1815816 C99.0014948,27.7497449 92.9354694,33.9041071 92.9354694,41.4285714 L94.6337818,41.4285714 L94.6337818,54.005102 L88.8101644,54.005102 L88.8101644,64.3333929 C86.6263079,60.5138265 82.9865471,57.8757143 77.8908819,57.5132143 L77.8908819,52.5255102 L74.9790732,52.5255102 L74.9790732,57.5901531 C68.4275037,58.4993622 63.0894305,64.48875 63.0894305,71.7602041 L64.7877429,71.7602041 L64.7877429,106.530612 L93.1778774,106.530612 L93.1778774,105.05102 L124.479821,105.05102 L124.479821,54.005102 L118.656203,54.005102 L118.656203,54.005102 Z" id="Fill-413" fill="#3A4245"></path>
                <polygon id="Fill-414" fill="#FFFFFF" points="99.0014948 53.2653061 101.185351 53.2653061 101.185351 42.9081633 99.0014948 42.9081633"></polygon>
                <polyline id="Fill-415" fill="#FFFFFF" points="105.553064 44.3877551 105.553064 53.2653061 107.736921 53.2653061 107.736921 42.9081633 105.553064 42.9081633 105.553064 44.3877551"></polyline>
                <polygon id="Fill-416" fill="#FFFFFF" points="112.104634 53.2653061 114.28849 53.2653061 114.28849 42.9081633 112.104634 42.9081633"></polygon>
                <polygon id="Fill-417" fill="#FFFFFF" points="99.0014948 71.7602041 101.185351 71.7602041 101.185351 61.4030612 99.0014948 61.4030612"></polygon>
                <polygon id="Fill-418" fill="#FFFFFF" points="105.553064 71.7602041 107.736921 71.7602041 107.736921 61.4030612 105.553064 61.4030612"></polygon>
                <polygon id="Fill-419" fill="#FFFFFF" points="112.104634 71.7602041 114.28849 71.7602041 114.28849 61.4030612 112.104634 61.4030612"></polygon>
                <polygon id="Fill-420" fill="#FFFFFF" points="69.1554559 90.255102 71.3393124 90.255102 71.3393124 79.8979592 69.1554559 79.8979592"></polygon>
                <polygon id="Fill-421" fill="#FFFFFF" points="75.7070254 90.255102 77.8908819 90.255102 77.8908819 79.8979592 75.7070254 79.8979592"></polygon>
                <polygon id="Fill-422" fill="#FFFFFF" points="82.2585949 90.255102 84.4424514 90.255102 84.4424514 79.8979592 82.2585949 79.8979592"></polygon>
                <polygon id="Fill-423" fill="#FFFFFF" points="99.0014948 90.255102 101.185351 90.255102 101.185351 79.8979592 99.0014948 79.8979592"></polygon>
                <polygon id="Fill-424" fill="#FFFFFF" points="105.553064 90.255102 107.736921 90.255102 107.736921 79.8979592 105.553064 79.8979592"></polygon>
                <polygon id="Fill-425" fill="#FFFFFF" points="112.104634 90.255102 114.28849 90.255102 114.28849 79.8979592 112.104634 79.8979592"></polygon>
                <polygon id="Fill-426" fill="#3A4245" points="35.6696562 105.05102 59.6920777 105.05102 59.6920777 52.5255102 35.6696562 52.5255102"></polygon>
                <polygon id="Fill-427" fill="#FFFFFF" points="38.5814649 64.3622449 41.4932735 64.3622449 41.4932735 59.1836735 38.5814649 59.1836735"></polygon>
                <polygon id="Fill-428" fill="#FFFFFF" points="48.7727952 64.3622449 51.6846039 64.3622449 51.6846039 59.1836735 48.7727952 59.1836735"></polygon>
                <polygon id="Fill-429" fill="#FFFFFF" points="53.8684604 64.3622449 56.7802691 64.3622449 56.7802691 59.1836735 53.8684604 59.1836735"></polygon>
                <polygon id="Fill-430" fill="#FFFFFF" points="38.5814649 72.5 41.4932735 72.5 41.4932735 67.3214286 38.5814649 67.3214286"></polygon>
                <polygon id="Fill-431" fill="#FFFFFF" points="43.67713 72.5 46.5889387 72.5 46.5889387 67.3214286 43.67713 67.3214286"></polygon>
                <polygon id="Fill-432" fill="#FFFFFF" points="48.7727952 72.5 51.6846039 72.5 51.6846039 67.3214286 48.7727952 67.3214286"></polygon>
                <polygon id="Fill-433" fill="#FFFFFF" points="38.5814649 81.377551 41.4932735 81.377551 41.4932735 75.4591837 38.5814649 75.4591837"></polygon>
                <polygon id="Fill-434" fill="#FFFFFF" points="48.7727952 81.377551 51.6846039 81.377551 51.6846039 75.4591837 48.7727952 75.4591837"></polygon>
                <polygon id="Fill-435" fill="#FFFFFF" points="53.8684604 81.377551 56.7802691 81.377551 56.7802691 75.4591837 53.8684604 75.4591837"></polygon>
                <polygon id="Fill-436" fill="#FFFFFF" points="38.5814649 89.5153061 41.4932735 89.5153061 41.4932735 84.3367347 38.5814649 84.3367347"></polygon>
                <polygon id="Fill-437" fill="#FFFFFF" points="43.67713 89.5153061 46.5889387 89.5153061 46.5889387 84.3367347 43.67713 84.3367347"></polygon>
                <polygon id="Fill-438" fill="#FFFFFF" points="53.8684604 89.5153061 56.7802691 89.5153061 56.7802691 84.3367347 53.8684604 84.3367347"></polygon>
                <polygon id="Fill-439" fill="#3A4245" points="411.292975 105.05102 433.13154 105.05102 433.13154 56.9642857 411.292975 56.9642857"></polygon>
                <polygon id="Fill-440" fill="#FFFFFF" points="428.035874 68.0612245 430.947683 68.0612245 430.947683 62.8826531 428.035874 62.8826531"></polygon>
                <polygon id="Fill-441" fill="#FFFFFF" points="418.572496 68.0612245 421.484305 68.0612245 421.484305 62.8826531 418.572496 62.8826531"></polygon>
                <polygon id="Fill-442" fill="#FFFFFF" points="414.204783 68.0612245 416.38864 68.0612245 416.38864 62.8826531 414.204783 62.8826531"></polygon>
                <polygon id="Fill-443" fill="#FFFFFF" points="428.035874 75.4591837 430.947683 75.4591837 430.947683 70.2806122 428.035874 70.2806122"></polygon>
                <polygon id="Fill-444" fill="#FFFFFF" points="422.940209 75.4591837 425.852018 75.4591837 425.852018 70.2806122 422.940209 70.2806122"></polygon>
                <polygon id="Fill-445" fill="#FFFFFF" points="418.572496 75.4591837 421.484305 75.4591837 421.484305 70.2806122 418.572496 70.2806122"></polygon>
                <polygon id="Fill-446" fill="#FFFFFF" points="428.035874 83.5969388 430.947683 83.5969388 430.947683 77.6785714 428.035874 77.6785714"></polygon>
                <polygon id="Fill-447" fill="#FFFFFF" points="418.572496 83.5969388 421.484305 83.5969388 421.484305 77.6785714 418.572496 77.6785714"></polygon>
                <polygon id="Fill-448" fill="#FFFFFF" points="414.204783 83.5969388 416.38864 83.5969388 416.38864 77.6785714 414.204783 77.6785714"></polygon>
                <polygon id="Fill-449" fill="#FFFFFF" points="428.035874 90.994898 430.947683 90.994898 430.947683 85.8163265 428.035874 85.8163265"></polygon>
                <polygon id="Fill-450" fill="#FFFFFF" points="422.940209 90.994898 425.852018 90.994898 425.852018 85.8163265 422.940209 85.8163265"></polygon>
                <polygon id="Fill-451" fill="#FFFFFF" points="414.204783 90.994898 416.38864 90.994898 416.38864 85.8163265 414.204783 85.8163265"></polygon>
                <path d="M399.64574,79.8979592 L401.101644,79.8979592 L401.101644,72.5 L399.64574,72.5 L399.64574,79.8979592 Z M399.64574,90.994898 L401.101644,90.994898 L401.101644,83.5969388 L399.64574,83.5969388 L399.64574,90.994898 Z M392.366218,79.8979592 L393.822123,79.8979592 L393.822123,72.5 L392.366218,72.5 L392.366218,79.8979592 Z M385.086697,79.8979592 L386.542601,79.8979592 L386.542601,72.5 L385.086697,72.5 L385.086697,79.8979592 Z M385.086697,90.994898 L386.542601,90.994898 L386.542601,83.5969388 L385.086697,83.5969388 L385.086697,90.994898 Z M377.807175,90.994898 L379.263079,90.994898 L379.263079,83.5969388 L377.807175,83.5969388 L377.807175,90.994898 Z M370.527653,79.8979592 L371.983558,79.8979592 L371.983558,72.5 L370.527653,72.5 L370.527653,79.8979592 Z M370.527653,90.994898 L371.983558,90.994898 L371.983558,83.5969388 L370.527653,83.5969388 L370.527653,90.994898 Z M363.248132,79.8979592 L364.704036,79.8979592 L364.704036,72.5 L363.248132,72.5 L363.248132,79.8979592 Z M355.96861,90.994898 L357.424514,90.994898 L357.424514,83.5969388 L355.96861,83.5969388 L355.96861,90.994898 Z M348.689088,79.8979592 L350.144993,79.8979592 L350.144993,72.5 L348.689088,72.5 L348.689088,79.8979592 Z M348.689088,90.994898 L350.144993,90.994898 L350.144993,83.5969388 L348.689088,83.5969388 L348.689088,90.994898 Z M363.976084,65.1020408 L386.542601,65.1020408 L386.542601,62.1428571 L363.976084,62.1428571 L363.976084,65.1020408 Z M393.09417,65.1020408 L393.09417,61.4030612 L395.639091,61.4030612 C395.575031,51.0459184 387.270553,42.0337245 376.351271,41.4596429 L376.351271,30.3316327 L373.439462,30.3316327 L373.439462,41.5158673 C363.976084,42.4472704 355.670149,51.0459184 355.607546,61.4030612 L357.424514,61.4030612 L357.424514,65.1020408 L343.593423,65.1020408 L343.593423,105.05102 L406.925262,105.05102 L406.925262,65.1020408 L393.09417,65.1020408 L393.09417,65.1020408 Z" id="Fill-452" fill="#3A4245"></path>
                <polygon id="Fill-453" fill="#FFFFFF" points="348.689088 79.8979592 350.144993 79.8979592 350.144993 72.5 348.689088 72.5"></polygon>
                <polygon id="Fill-454" fill="#FFFFFF" points="370.527653 79.8979592 371.983558 79.8979592 371.983558 72.5 370.527653 72.5"></polygon>
                <polygon id="Fill-455" fill="#FFFFFF" points="392.366218 79.8979592 393.822123 79.8979592 393.822123 72.5 392.366218 72.5"></polygon>
                <polygon id="Fill-456" fill="#FFFFFF" points="399.64574 79.8979592 401.101644 79.8979592 401.101644 72.5 399.64574 72.5"></polygon>
                <polygon id="Fill-457" fill="#FFFFFF" points="348.689088 90.994898 350.144993 90.994898 350.144993 83.5969388 348.689088 83.5969388"></polygon>
                <polygon id="Fill-458" fill="#FFFFFF" points="355.96861 90.994898 357.424514 90.994898 357.424514 83.5969388 355.96861 83.5969388"></polygon>
                <polygon id="Fill-459" fill="#FFFFFF" points="370.527653 90.994898 371.983558 90.994898 371.983558 83.5969388 370.527653 83.5969388"></polygon>
                <polygon id="Fill-460" fill="#FFFFFF" points="377.807175 90.994898 379.263079 90.994898 379.263079 83.5969388 377.807175 83.5969388"></polygon>
                <polygon id="Fill-461" fill="#FFFFFF" points="385.086697 79.8979592 386.542601 79.8979592 386.542601 72.5 385.086697 72.5"></polygon>
                <polygon id="Fill-462" fill="#FFFFFF" points="385.086697 90.994898 386.542601 90.994898 386.542601 83.5969388 385.086697 83.5969388"></polygon>
                <polygon id="Fill-462" fill="#FFFFFF" points="385.086697 90.994898 386.542601 90.994898 386.542601 83.5969388 385.086697 83.5969388"></polygon>
                <polygon id="Fill-463" fill="#FFFFFF" points="363.248132 79.8979592 364.704036 79.8979592 364.704036 72.5 363.248132 72.5"></polygon>
                <polygon id="Fill-464" fill="#FFFFFF" points="399.64574 90.994898 401.101644 90.994898 401.101644 83.5969388 399.64574 83.5969388"></polygon>
                <polygon id="Fill-465" fill="#FFFFFF" points="363.976084 65.1020408 386.542601 65.1020408 386.542601 62.1428571 363.976084 62.1428571"></polygon>
                <path d="M289.823964,25.9350255 L289.839251,23.9102041 L289.78975,18.9705867 L289.599027,4.43877551 L288.143123,4.43877551 L287.929833,18.9705867 C286.979855,19.3626786 286.305771,20.3244133 286.305771,21.4540816 C286.305771,22.5556378 286.944913,23.5003571 287.857037,23.9102041 L287.827191,25.9350255 C282.859646,26.3256378 278.80568,29.4690306 278.80568,33.2908163 C278.80568,36.2011735 281.227577,38.7120408 284.139386,39.9193878 L284.139386,103.571429 L292.874812,103.571429 L292.874812,39.9193878 C296.514572,38.7120408 298.572493,36.2011735 298.572493,33.2908163 C298.572493,29.4690306 294.79151,26.3256378 289.823964,25.9350255 Z" id="Fill-629" fill="#3A4245"></path>
            </g>
            <polyline id="Fill-460" fill="#3A4245" points="184.02207 255 182.185059 255 182.185059 241.943359 184.02207 241.943359 184.02207 255"></polyline>
            <g id="Group" transform="translate(173.000000, 228.886719)" fill="#3A4245">
                <ellipse id="Oval-2" cx="4.59252932" cy="6.52832031" rx="4.59252932" ry="3.91699219"></ellipse>
                <ellipse id="Oval-2" cx="10.1035645" cy="3.91699219" rx="4.59252932" ry="3.91699219"></ellipse>
                <ellipse id="Oval-2" cx="11.9405762" cy="10.4453125" rx="4.59252932" ry="3.91699219"></ellipse>
                <ellipse id="Oval-2" cx="15.6145997" cy="6.52832031" rx="4.59252932" ry="3.91699219"></ellipse>
                <ellipse id="Oval-2" cx="6.42954104" cy="10.4453125" rx="4.59252932" ry="3.91699219"></ellipse>
            </g>
        </g>
    </g>
</svg>